<svg xmlns="http://www.w3.org/2000/svg" viewBox="0 0 24 24" role="img" aria-label="GitHub">
    <path fill="#ffffff" d="M12 .5C5.73.5.5 5.73.5 12c0 5.08 3.29 9.39 7.86 10.91.58.11.79-.25.79-.56 0-.27-.01-1.16-.02-2.1-3.2.7-3.88-1.36-3.88-1.36-.52-1.33-1.28-1.69-1.28-1.69-1.05-.72.08-.71.08-.71 1.16.08 1.77 1.19 1.77 1.19 1.03 1.77 2.71 1.26 3.37.96.1-.75.4-1.26.73-1.55-2.55-.29-5.24-1.28-5.24-5.7 0-1.26.45-2.29 1.19-3.1-.12-.29-.51-1.47.11-3.07 0 0 .97-.31 3.18 1.18a11.06 11.06 0 0 1 5.79 0c2.2-1.49 3.17-1.18 3.17-1.18.62 1.6.23 2.78.11 3.07.74.81 1.19 1.84 1.19 3.1 0 4.43-2.7 5.41-5.27 5.69.41.36.78 1.06.78 2.13 0 1.54-.01 2.78-.01 3.16 0 .31.21.68.8.56C20.21 21.39 23.5 17.08 23.5 12 23.5 5.73 18.27.5 12 .5z"/>
</svg>
